<?xml version="1.0" encoding="UTF-8" standalone="no"?>
<!DOCTYPE svg PUBLIC "-//W3C//DTD SVG 20010904//EN"
              "http://www.w3.org/TR/2001/REC-SVG-20010904/DTD/svg10.dtd">

<svg xmlns="http://www.w3.org/2000/svg"
     width="2.12in" height="2.07in"
     viewBox="0 0 636 621">
  
<path id="Selecci贸n #4"
        fill="#2b2b2b" stroke="#000000" stroke-width="1"
        d="M 385.27,140.73
           C 371.14,141.88 359.58,141.67 345.82,146.55
             328.40,152.71 312.91,162.72 299.82,175.82
             299.82,175.82 288.18,188.00 288.18,188.00
             269.45,209.40 257.32,233.03 257.27,262.18
             257.25,279.32 257.69,289.96 263.27,306.73
             279.22,354.59 321.85,384.50 372.55,385.09
             414.95,385.59 452.43,364.49 476.73,329.82
             481.09,323.59 485.55,315.47 488.91,308.73
             496.96,292.58 499.06,277.77 499.27,259.64
             499.49,241.27 496.22,223.85 488.36,207.27
             483.19,196.36 477.40,187.12 468.91,178.55
             457.64,167.16 446.62,157.96 432.00,151.45
             416.55,144.58 402.18,140.87 385.27,140.73 Z
           M 381.09,144.73
           C 385.48,144.50 386.79,144.82 390.73,145.09
             404.61,146.04 404.89,146.14 418.73,150.18
             431.24,153.84 441.49,159.27 452.00,167.01
             503.34,204.87 511.79,279.57 472.49,329.00
             464.24,339.37 451.59,349.67 440.00,356.14
             427.88,362.90 411.86,368.48 398.00,369.83
             398.00,369.83 383.00,370.97 383.00,370.97
             383.00,370.97 373.27,370.73 373.27,370.73
             352.87,369.30 334.85,362.43 318.00,350.56
             288.40,329.72 273.35,300.58 270.91,265.00
             270.91,265.00 270.18,258.00 270.18,258.00
             270.18,258.00 270.91,251.00 270.91,251.00
             272.58,226.64 279.75,205.17 295.46,186.00
             310.37,167.82 331.03,154.27 353.82,148.55
             365.46,145.62 370.54,146.18 381.09,144.73 Z" />
    <path id="Selecci贸n #1"
        fill="#000000" stroke="#000000" stroke-width="3"
        d="M 292.55,130.55
           C 292.55,130.55 270.00,136.91 270.00,136.91
             270.00,136.91 230.73,147.27 230.73,147.27
             226.11,148.58 211.82,151.27 208.18,153.27
             208.18,159.09 208.12,166.87 208.18,169.45
             208.18,169.45 209.64,192.91 209.64,192.91
             209.66,206.45 210.91,213.45 211.27,226.91
             205.64,219.27 187.76,194.44 180.91,184.55
             178.27,180.73 170.36,169.82 166.73,163.82
             161.27,165.27 153.62,167.52 148.73,168.91
             148.73,168.91 118.36,176.91 118.36,176.91
             111.52,178.81 104.18,180.18 97.09,181.64
             104.91,171.09 119.28,149.33 126.18,139.64
             129.09,135.56 134.65,126.91 138.00,122.36
             134.18,117.27 130.97,112.69 128.91,109.64
             126.51,106.08 118.36,95.64 114.91,90.36
             109.09,90.18 101.45,89.82 94.18,93.45
             90.73,95.82 90.06,97.81 90.12,103.97
             85.03,103.97 78.95,103.61 76.59,109.81
             75.02,113.76 76.41,124.76 76.75,128.81
             76.75,128.81 78.75,149.75 78.75,149.75
             78.75,149.75 80.47,164.88 80.47,164.88
             80.47,164.88 84.56,216.81 84.56,216.81
             84.56,216.81 88.53,258.50 88.53,258.50
             88.53,258.50 100.00,388.55 100.00,388.55
             100.00,388.55 106.91,466.36 106.91,466.36
             106.91,466.36 107.82,474.73 107.82,474.73
             107.82,474.73 111.82,524.36 111.82,524.36
             111.82,524.36 113.59,549.12 113.59,549.12
             115.97,559.44 112.81,572.53 126.41,570.81
             132.12,570.44 142.36,569.64 149.00,568.96
             149.00,568.96 180.00,566.17 180.00,566.17
             180.00,566.17 226.00,562.17 226.00,562.17
             226.00,562.17 278.00,557.83 278.00,557.83
             278.00,557.83 431.00,544.17 431.00,544.17
             431.00,544.17 477.00,540.17 477.00,540.17
             477.00,540.17 497.00,538.58 497.00,538.58
             497.00,538.58 555.00,533.28 555.00,533.28
             562.05,532.45 573.83,532.87 579.64,528.73
             582.44,526.72 581.45,522.36 582.00,520.18
             584.73,519.82 591.00,519.15 593.82,517.09
             598.45,513.70 596.42,508.74 596.36,503.64
             596.36,503.64 591.64,450.55 591.64,450.55
             591.64,450.55 584.55,368.36 584.55,368.36
             584.55,368.36 582.00,340.55 582.00,340.55
             582.00,340.55 570.73,209.64 570.73,209.64
             570.73,209.64 566.00,156.36 566.00,156.36
             566.00,156.36 563.09,123.09 563.09,123.09
             563.09,123.09 559.09,79.64 559.09,79.64
             559.09,79.64 558.55,72.00 558.55,72.00
             558.18,66.18 558.00,61.09 554.73,54.36
             550.73,52.55 547.99,52.97 545.00,53.00
             545.00,53.00 513.00,55.91 513.00,55.91
             513.00,55.91 434.00,62.83 434.00,62.83
             434.00,62.83 331.00,71.83 331.00,71.83
             331.00,71.83 287.00,75.58 287.00,75.58
             287.00,75.58 278.00,76.17 278.00,76.17
             278.00,76.17 230.18,80.00 230.18,80.00
             220.23,81.18 215.45,81.27 207.09,82.00
             207.09,81.96 206.86,87.92 206.91,95.82
             206.91,100.55 206.91,102.55 206.55,105.09
             214.36,106.73 224.57,109.79 228.91,111.09
             228.91,111.09 271.82,124.18 271.82,124.18
             277.95,126.03 286.73,128.18 292.55,130.55 Z
           M 375.00,141.28
           C 429.27,138.55 476.77,169.85 493.82,221.45
             496.77,230.38 499.71,242.83 499.82,252.18
             499.82,252.18 499.82,261.82 499.82,261.82
             498.73,295.27 484.85,324.89 462.36,347.27
             453.49,356.11 440.98,366.43 429.64,371.82
             408.83,381.71 392.75,386.26 370.00,386.00
             363.14,385.92 353.70,384.09 347.00,382.37
             312.58,373.55 282.06,352.53 268.00,319.64
             259.18,299.01 256.69,284.52 256.73,262.73
             256.77,234.80 270.18,209.49 287.64,188.55
             302.27,170.99 315.67,160.37 336.73,150.73
             350.61,144.37 360.26,143.45 375.00,141.28 Z" />
    <path id="Selecci贸n #2"
        fill="#222222" stroke="black" stroke-width="3"
        d="M 77.64,146.36
           C 77.27,139.45 75.45,125.64 74.91,116.91
             71.45,117.45 66.47,117.80 63.64,120.36
             60.18,123.82 61.82,128.18 61.64,131.09
             56.91,131.27 52.05,131.62 49.09,134.36
             46.63,136.64 46.73,139.82 46.18,142.73
             40.73,143.64 34.41,143.92 33.09,151.45
             31.99,155.62 33.49,166.48 33.64,170.55
             33.64,170.55 36.18,200.55 36.18,200.55
             36.18,200.55 41.64,257.82 41.64,257.82
             41.64,257.82 45.09,299.45 45.09,299.45
             45.09,299.45 56.73,428.91 56.73,428.91
             56.73,428.91 62.00,486.18 62.00,486.18
             62.00,486.18 66.36,540.36 66.36,540.36
             66.36,540.36 70.18,577.09 70.18,577.09
             70.18,577.09 71.56,599.38 71.56,599.38
             72.30,609.88 76.44,610.50 88.44,609.69
             88.44,609.69 129.45,606.18 129.45,606.18
             129.45,606.18 186.91,601.27 186.91,601.27
             186.91,601.27 298.55,591.27 298.55,591.27
             298.55,591.27 410.00,581.64 410.00,581.64
             410.00,581.64 482.73,575.64 482.73,575.64
             482.73,575.64 514.55,572.91 514.55,572.91
             519.25,572.58 529.33,572.37 533.45,570.18
             537.58,567.99 538.01,562.95 538.19,559.31
             541.82,559.13 546.18,559.09 549.82,556.55
             552.91,552.55 552.55,550.73 552.91,546.00
             557.45,545.64 560.00,545.82 564.36,542.36
             567.29,539.38 566.91,536.18 566.91,532.91
             562.36,533.09 548.18,534.36 541.09,534.91
             528.73,536.18 512.73,537.78 510.73,537.82
             510.73,537.82 491.82,539.09 491.82,539.09
             491.82,539.09 462.18,542.00 462.18,542.00
             462.18,542.00 416.91,545.45 416.91,545.45
             416.91,545.45 338.73,552.55 338.73,552.55
             338.73,552.55 252.36,560.00 252.36,560.00
             252.36,560.00 194.00,565.27 194.00,565.27
             194.00,565.27 141.38,569.75 141.38,569.75
             126.81,570.56 115.00,575.81 113.94,556.25
             113.44,547.81 112.44,538.69 111.45,527.64
             110.74,519.85 109.56,504.62 109.56,504.62
             109.56,504.62 106.31,468.88 106.31,468.88
             106.31,468.88 99.82,397.09 99.82,397.09
             99.82,397.09 88.55,263.45 88.55,263.45
             88.55,263.45 85.45,232.00 85.45,232.00
             85.45,232.00 82.36,198.36 82.36,198.36
             81.73,193.56 81.45,188.18 80.36,176.73
             79.82,169.45 78.55,154.36 77.64,146.36 Z" />
             <path id="Selecci贸n"
        fill="#f6f6f6" stroke="black" stroke-width="3"
        d="M 97.50,64.25
           C 102.23,70.61 107.80,79.53 111.25,84.38
             111.25,84.38 130.12,111.38 130.12,111.38
             132.21,114.41 136.12,119.60 138.12,122.88
             135.94,125.78 128.38,136.35 125.88,139.88
             119.84,148.35 101.59,174.61 96.50,182.25
             102.68,180.80 114.82,177.83 120.62,176.38
             120.62,176.38 151.88,168.00 151.88,168.00
             156.25,166.89 162.58,165.03 167.12,164.12
             169.31,166.67 174.70,175.12 177.38,178.88
             177.38,178.88 197.50,207.25 197.50,207.25
             201.09,212.28 206.32,220.42 210.50,225.88
             210.32,216.42 208.42,188.09 208.38,176.75
             208.23,171.67 207.18,157.67 207.00,153.12
             212.45,151.67 227.16,148.34 233.00,146.87
             233.00,146.87 261.00,139.37 261.00,139.37
             269.36,137.26 281.45,133.45 292.73,130.36
             284.36,128.00 274.63,124.52 268.00,122.58
             268.00,122.58 230.00,111.02 230.00,111.02
             224.52,109.34 212.00,106.51 206.00,104.88
             205.82,101.60 205.84,94.19 205.88,91.38
             205.88,91.38 206.75,78.12 206.75,78.12
             206.75,78.12 207.62,58.62 207.62,58.62
             207.62,58.62 208.88,42.88 208.88,42.88
             208.88,42.88 209.88,21.12 209.88,21.12
             205.69,26.58 199.98,34.70 196.25,40.12
             196.25,40.12 172.62,73.88 172.62,73.88
             170.14,77.38 162.18,87.73 160.00,91.00
             156.55,89.55 150.54,87.32 146.88,85.75
             136.61,81.34 106.77,68.43 97.50,64.25 Z
           M 376.82,145.45
           C 366.97,146.59 367.36,145.48 356.56,148.19
             333.77,153.91 310.78,167.70 295.88,185.88
             262.49,226.60 262.62,291.82 297.06,332.06
             322.96,362.32 362.97,374.52 402.00,369.71
             415.20,368.09 427.20,363.69 439.00,357.75
             450.69,351.86 456.48,345.06 465.69,335.81
             505.36,295.97 507.16,230.61 471.65,187.30
             458.30,171.02 443.08,158.72 423.18,152.09
             411.54,148.21 405.03,146.74 393.00,145.67
             388.28,145.59 382.09,144.69 376.82,145.45 Z" />
</svg>

